<?xml version="1.0" standalone="no"?>
<!DOCTYPE svg PUBLIC "-//W3C//DTD SVG 20010904//EN"
 "http://www.w3.org/TR/2001/REC-SVG-20010904/DTD/svg10.dtd">
<svg version="1.0" xmlns="http://www.w3.org/2000/svg"
 width="16.000000pt" height="16.000000pt" viewBox="0 0 16.000000 16.000000"
 preserveAspectRatio="xMidYMid meet">
<metadata>
Created by potrace 1.11, written by Peter Selinger 2001-2013
</metadata>
<g transform="translate(0.000000,16.000000) scale(0.002807,-0.002807)"
fill="#000000" stroke="none">
<path d="M4520 4643 c-30 -12 -56 -71 -32 -74 78 -9 89 -15 106 -67 18 -54 19
-226 2 -256 -8 -14 -8 -20 2 -23 31 -11 -7 -105 -112 -278 -72 -119 -115 -165
-195 -208 -54 -30 -126 -38 -206 -24 -47 9 -141 68 -149 94 -3 10 -21 27 -38
37 -50 30 -227 116 -238 116 -5 0 -21 24 -35 54 -34 71 -86 130 -138 154 -23
11 -87 47 -142 79 -93 55 -155 79 -230 89 -48 6 -158 6 -184 0 -125 -29 -234
-78 -340 -153 -62 -44 -70 -46 -139 -49 -89 -3 -179 -21 -209 -40 -13 -8 -23
-12 -23 -9 0 4 -7 -1 -16 -9 -8 -9 -23 -16 -32 -16 -15 0 -114 -56 -253 -142
-25 -15 -50 -28 -56 -28 -5 0 -23 -15 -40 -32 -16 -18 -41 -42 -54 -54 -30
-27 -48 -49 -78 -97 -33 -54 -48 -66 -74 -61 -12 2 -48 -6 -80 -17 l-58 -22
-39 22 c-21 12 -56 28 -79 36 -80 28 -163 94 -246 196 -38 47 -97 173 -97 209
0 19 -6 47 -14 62 -8 15 -14 40 -14 57 0 16 -4 32 -9 36 -5 3 -8 33 -6 66 5
87 56 169 108 176 38 6 47 12 47 33 0 27 -43 43 -98 37 -56 -6 -131 -58 -203
-139 -30 -34 -78 -86 -107 -116 -29 -30 -55 -65 -58 -78 -3 -13 -9 -24 -13
-24 -24 0 -78 -64 -106 -125 -18 -39 -40 -77 -49 -84 -9 -7 -16 -19 -16 -25 0
-10 -36 -68 -77 -126 -31 -43 -135 -212 -168 -273 -31 -57 -32 -57 -43 -32
-22 48 -48 25 -57 -53 -2 -13 3 -42 11 -64 11 -31 12 -50 4 -79 -6 -21 -13
-65 -15 -96 -3 -32 -8 -80 -12 -108 -3 -27 -7 -63 -8 -80 -1 -16 -5 -55 -9
-85 -14 -110 -7 -454 9 -480 2 -3 6 -26 10 -50 3 -25 13 -70 21 -100 8 -30 17
-62 19 -70 13 -52 40 -111 76 -163 23 -34 51 -82 62 -107 11 -25 30 -69 44
-99 33 -75 60 -197 58 -267 -3 -71 -15 -161 -25 -190 -9 -23 5 -54 24 -54 8 0
21 15 29 33 36 76 67 158 67 175 0 10 5 23 12 30 20 20 16 198 -7 312 -20 93
-4 150 49 172 55 23 247 16 320 -12 15 -5 26 -7 26 -5 0 2 12 0 26 -6 21 -7
31 -6 45 7 17 15 17 19 4 44 -42 80 -95 278 -95 351 0 77 39 118 142 149 40
13 79 25 86 28 18 6 6 -57 -23 -123 -39 -87 -75 -220 -75 -273 0 -18 12 -41
35 -65 32 -34 35 -42 30 -81 -2 -24 -8 -51 -11 -60 -3 -9 -2 -16 4 -16 6 0 35
-20 65 -45 38 -30 58 -55 62 -76 4 -17 18 -47 31 -66 13 -19 26 -42 29 -52 3
-9 18 -24 33 -33 16 -9 67 -46 115 -82 48 -37 91 -66 95 -66 4 0 44 -23 87
-50 44 -28 104 -58 132 -66 29 -8 59 -25 67 -36 18 -25 61 -48 91 -48 12 0 38
-7 57 -14 19 -8 66 -18 104 -21 56 -5 76 -12 107 -37 49 -38 307 -183 344
-193 87 -22 162 -32 209 -28 120 10 309 85 414 165 43 33 68 44 113 50 32 4
77 16 100 26 23 10 61 27 85 37 23 10 42 21 42 25 0 4 17 15 38 26 52 27 98
61 151 114 25 25 57 55 71 65 14 11 32 35 39 53 8 18 33 49 57 69 24 19 44 40
44 46 0 14 32 36 53 37 9 0 17 4 17 8 0 5 10 19 21 31 16 17 29 22 50 17 23
-4 32 0 47 22 11 15 22 37 26 49 8 25 83 93 102 93 18 0 57 22 82 48 15 15 33
23 50 21 51 -4 64 9 59 55 -3 23 -15 63 -27 89 -20 44 -21 98 -4 170 1 4 2 19
3 33 1 16 14 39 35 58 32 30 84 110 109 168 13 32 13 32 124 -14 40 -16 90
-46 112 -66 61 -57 82 -145 51 -217 -7 -16 -14 -32 -15 -35 -1 -3 -9 -23 -19
-45 -30 -71 -40 -123 -25 -141 13 -16 17 -16 109 11 68 20 135 29 220 30 58 0
72 -4 119 -34 29 -19 57 -45 62 -59 5 -14 12 -71 15 -126 3 -56 10 -126 15
-156 6 -30 12 -64 13 -75 8 -56 69 -270 83 -291 16 -25 37 -31 48 -14 3 5 8
74 10 152 3 79 6 157 8 173 3 17 7 50 11 75 3 25 8 68 11 95 6 61 17 96 55
174 27 56 81 207 86 241 1 8 7 40 13 70 17 81 23 175 24 365 1 175 -6 278 -28
395 -4 19 -8 44 -9 55 -7 49 -51 184 -76 234 -19 37 -26 60 -20 71 5 8 10 42
13 74 6 70 -12 85 -49 43 -25 -29 -34 -33 -34 -17 0 14 -70 124 -81 128 -5 2
-9 8 -9 14 0 6 -17 32 -37 58 -21 27 -54 71 -73 99 -19 27 -38 50 -42 51 -5 0
-8 6 -8 13 0 6 -20 38 -45 69 -25 32 -45 64 -45 72 0 8 -8 21 -17 28 -10 7
-24 26 -32 41 -8 15 -30 35 -49 44 -20 9 -42 30 -51 46 -9 15 -24 38 -33 49
-10 12 -18 25 -18 30 0 4 -7 8 -15 8 -15 0 -65 45 -65 59 0 4 -8 16 -18 27 -9
10 -32 38 -50 61 -54 69 -140 107 -192 86z m-1146 -509 c8 -3 33 -29 55 -58
l39 -53 -61 24 c-34 13 -71 29 -82 35 -11 6 -31 17 -44 24 -27 14 -20 20 34
27 17 2 33 5 37 6 3 0 13 -2 22 -5z m-979 -2783 c31 -6 36 -9 20 -14 -64 -21
-109 -18 -119 8 -6 17 31 19 99 6z"/>
</g>
</svg>
