<svg version="1" xmlns="http://www.w3.org/2000/svg" width="2668" height="2668" viewBox="0 0 2001.000000 2001.000000"><path d="M978 12.2c-11.3 6.6-31.1 18.1-44 25.6-39.1 22.5-46.8 26.9-94 54.2-85.9 49.7-109.5 63.3-115.5 66.7-3.3 1.9-7.6 4.3-9.5 5.5-1.9 1.1-28.2 16.3-58.5 33.8-30.2 17.4-62.6 36.1-72 41.5-28.2 16.3-61 35.3-78.5 45.3-9.1 5.2-18.2 10.6-20.2 11.8-2.1 1.3-4 2.4-4.3 2.4-.2 0-3.3 1.7-6.7 3.8-3.5 2.1-8.5 5.1-11.3 6.6-2.7 1.6-18 10.4-34 19.6-15.9 9.2-43.6 25.2-61.5 35.5s-49.8 28.8-71 41c-21.2 12.3-40.1 23.2-42 24.3-9.6 5.4-66.7 38.3-68 39.1-2 1.3-28.8 16.8-42.5 24.6l-11 6.3v500c0 275 .2 500.3.5 500.5.3.3 28.2 16.4 62 35.9 33.8 19.6 77.7 44.9 97.5 56.3 19.8 11.5 36.9 21.3 38 21.9 1.1.6 5.2 3 9 5.2 12.8 7.5 81.9 47.4 95.5 55.2 3.9 2.2 64.1 36.9 131 75.7 24.5 14.1 47 27 50 28.7 3 1.6 7.5 4.2 10 5.8 2.5 1.5 41.4 24 86.5 50s93.3 53.8 107 61.8c13.8 8 34 19.6 45 26 66.4 38.2 117.5 67.7 120.7 69.8 2.1 1.3 4 2.4 4.3 2.4.3 0 2.3 1.1 4.5 2.5s4.4 2.5 4.8 2.5c.8 0 59.3-33.6 179.7-103.3 10.5-6 20.8-12 23-13.2 2.3-1.3 12.4-7.2 22.5-13 10.2-5.9 20.3-11.8 22.5-13 4.9-2.8 57.4-33.1 70.5-40.7 16.3-9.5 49.9-28.8 63-36.3 6.9-3.9 21.3-12.2 32-18.5 59.6-34.5 73.4-42.5 103-59.6 17.9-10.3 40.8-23.5 51-29.4 10.2-5.8 44.2-25.4 75.5-43.5 31.4-18.1 94.6-54.6 140.5-81.2l83.5-48.2v-499.6c0-274.8-.2-500-.5-500.4-.4-.7-7.1-4.7-18-10.9-1.9-1-13.8-7.9-26.5-15.2-12.6-7.4-32.9-19.1-45-26-12.1-7-46.7-27-77-44.5-62.6-36.2-66.9-38.7-119.5-69-21.2-12.2-59-34.1-84-48.5-25-14.5-48.4-28-52-30-7.6-4.3-42.3-24.3-77-44.5-13.5-7.8-35.3-20.4-48.5-28-13.2-7.6-28-16.1-33-19-9.4-5.5-65.5-37.9-71.5-41.3-1.9-1-17.7-10.1-35-20.2-17.3-10-33.1-19.1-35-20.2-1.9-1.1-25.3-14.6-52-30.1-26.7-15.4-49.8-28.8-51.5-29.7-1.6-.9-11.3-6.5-21.5-12.4C1008.9 4.8 1000.1 0 999.5.1c-.5.1-10.2 5.5-21.5 12.1z"/></svg>